<svg xmlns="http://www.w3.org/2000/svg" width="24" height="24" viewBox="0 0 24 24" fill="none" stroke="currentColor" stroke-width="2" stroke-linecap="round" stroke-linejoin="round" class="lucide lucide-puzzle"><path d="M19.43 12.03c.25.82.7 1.54 1.34 2.12.64.58 1.4.98 2.23 1.15.2.04.36.1.5.2v3.08c-.28.16-.58.3-.88.4-.62.2-1.25.3-1.88.3-.83 0-1.63-.2-2.38-.52-.75-.32-1.45-.78-2.07-1.34-.62-.56-1.15-1.22-1.58-1.95-.43-.73-.74-1.5-.9-2.32h-2.03v2.03c.18.85.5 1.67.95 2.4.45.73 1.05 1.37 1.76 1.9s1.52.95 2.38 1.22c.86.27 1.76.4 2.67.4.7 0 1.39-.1 2.05-.3.66-.2 1.3-.5 1.9-.88.6-.38 1.14-.84 1.62-1.35.48-.5.88-1.07 1.2-1.68.32-.6.55-1.25.7-1.92V12h-3.08c-.18.2-.38.38-.6.55-.6.5-1.27.9-2 .1-.72.1-1.44.1-2.15 0z"/><path d="M12 12v-2.03c.85-.18 1.67-.5 2.4-.95.73-.45 1.37-1.05 1.9-1.76s.95-1.52 1.22-2.38c.27-.86.4-1.76.4-2.67 0-.7-.1-1.39-.3-2.05-.2-.66-.5-1.3-.88-1.9-.38-.6-1.07-1.14-1.68-1.62-.5-.48-1.07-.88-1.68-1.2-.6-.32-1.25-.55-1.92-.7H12v3.08c.2.18.38.38.55.6.5.6.9 1.27.1 2 .1.72.1 1.44 0 2.15 0 .72-.2 1.42-.52 2.07-.32.65-.78 1.25-1.34 1.87-.56.62-1.22 1.15-1.95 1.58-.73.43-1.5.74-2.32.9v2.03h2.03c.85.18 1.67.5 2.4.95.73.45 1.37 1.05 1.9 1.76s.95 1.52 1.22 2.38c.27.86.4 1.76.4 2.67 0 .7-.1 1.39-.3 2.05-.2.66-.5 1.3-.88 1.9-.38.6-.84 1.14-1.35 1.62-.5.48-1.07.88-1.68 1.2-.6.32-1.25.55-1.92.7H12v-3.08c.18-.2.38-.38.55-.6.6-.5 1.27-.9 2-1 .72-.1 1.44-.1 2.15 0 .72 0 1.42.2 2.07.52.65.32 1.25.78 1.87 1.34.62.56 1.15 1.22 1.58 1.95.43.73.74 1.5.9 2.32h2.03v-2.03c-.18-.85-.5-1.67-.95-2.4-.45-.73-1.05-1.37-1.76-1.9s-1.52-.95-2.38-1.22c-.86-.27-1.76-.4-2.67-.4-.7 0-1.39.1-2.05.3-.66.2-1.3.5-1.9.88-.6.38-1.14.84-1.62 1.35-.48.5-.88-1.07-1.2-1.68-.32-.6-.55-1.25-.7-1.92V12h3.08c.18-.2.38-.38.6-.55.6-.5 1.27-.9 2-1 .72-.1 1.44-.1 2.15 0z"/><path d="M4.57 12.03c-.25.82-.7 1.54-1.34 2.12-.64.58-1.4.98-2.23 1.15-.2.04-.36.1-.5.2v3.08c.28.16.58.3.88.4.62.2 1.25.3 1.88.3.83 0 1.63-.2 2.38-.52.75-.32 1.45-.78 2.07-1.34.62-.56 1.15-1.22 1.58-1.95.43-.73.74-1.5.9-2.32h2.03v-2.03c-.18-.85-.5-1.67-.95-2.4-.45-.73-1.05-1.37-1.76-1.9s-1.52-.95-2.38-1.22C6.4 3.2 5.5 3.08 4.6 3.08c-.7 0-1.39.1-2.05.3-.66.2-1.3.5-1.9.88-.6.38-1.14.84-1.62 1.35C-.47 6.1.05 6.6.37 7.2c-.32.6-.55 1.25-.7 1.92V12h3.08c.18-.2.38-.38.6-.55.6-.5 1.27-.9 2-1 .72-.1 1.44-.1 2.15 0z"/></svg>