<svg xmlns="http://www.w3.org/2000/svg" width="24" height="24" viewBox="0 0 24 24" fill="none" stroke="currentColor" stroke-width="2" stroke-linecap="round" stroke-linejoin="round" class="lucide lucide-puzzle"><path d="M19.43 12.03c.32.95.47 1.95.47 3s-.15 2.05-.47 3a4 4 0 0 1-3.46 2.47c-1.46.21-2.92.21-4.38 0a4 4 0 0 1-3.47-2.47c-.32-.95-.47-1.95-.47-3s.15-2.05.47-3a4 4 0 0 1 3.47-2.47c.3-.05.6-.08.9-.11.23-.02.46-.05.69-.07.27-.03.54-.05.81-.07.45-.03.9-.06 1.34-.06.25 0 .5.01.74.03.24.02.48.04.71.06.27.02.54.05.8.08.3.03.6.06.9.1a4 4 0 0 1 3.47 2.47Z"/><path d="M12.03 8.53c.21-.95.46-1.9.8-2.78.34-.88.78-1.73 1.35-2.5.57-.77 1.2-1.48 1.9-2.1.35-.31.74-.58 1.17-.79.43-.21.9-.38 1.4-.49.5-.11 1.02-.17 1.55-.17.53 0 1.05.06 1.55.17.5.11 1 .28 1.4.49.43.21.82.48 1.17.79.7.62 1.33 1.33 1.9 2.1.57.77 1.01 1.62 1.35 2.5.34.88.59 1.83.8 2.78.07.31.12.63.17.95.05.32.08.64.08.98s-.03.66-.08.98a4.9 4.9 0 0 1-.17.95c-.21.95-.46 1.9-.8 2.78-.34.88-.78 1.73-1.35 2.5-.57.77-1.2 1.48-1.9 2.1-.35.31-.74.58-1.17-.79-.43-.21-.9-.38-1.4-.49-.5-.11-1.02-.17-1.55-.17-.53 0-1.05.06-1.55.17-.5.11-1 .28-1.4.49-.43.21-.82.48-1.17.79-.7.62-1.33 1.33-1.9 2.1-.57.77-1.01 1.62-1.35 2.5-.34.88-.59 1.83-.8 2.78-.07.31-.12.63-.17.95-.05.32-.08.64-.08.98s.03.66.08.98c.05.32.1.64.17.95.21.95.46 1.9.8 2.78.34.88.78 1.73 1.35 2.5.57.77 1.2 1.48 1.9 2.1.35.31.74.58 1.17.79.43-.21.9-.38 1.4-.49.5-.11 1.02-.17 1.55-.17.53 0 1.05.06 1.55.17.5.11 1 .28 1.4.49.43.21.82.48 1.17.79.7.62 1.33 1.33 1.9 2.1.57.77 1.01 1.62 1.35 2.5.34.88.59 1.83.8 2.78.07.31.12.63.17.95.05.32.08.64.08.98s-.03.66-.08.98a4.9 4.9 0 0 1-.17.95c-.21-.95-.46-1.9-.8-2.78-.34-.88-.78-1.73-1.35-2.5-.57-.77-1.2-1.48-1.9-2.1-.35-.31-.74-.58-1.17-.79-.43-.21-.9-.38-1.4-.49-.5-.11-1.02-.17-1.55-.17s-1.05.06-1.55.17c-.5.11-1 .28-1.4.49-.43.21-.82.48-1.17.79-.7.62-1.33 1.33-1.9 2.1-.57.77-1.01 1.62-1.35 2.5-.34.88-.59 1.83-.8 2.78-.07.31-.12.63-.17.95-.05.32-.08.64-.08.98s.03.66.08.98c.05.32.1.64.17.95.21.95.46 1.9.8 2.78.34.88.78 1.73 1.35 2.5.57.77 1.2 1.48 1.9 2.1.35.31.74.58 1.17.79.43-.21.9-.38 1.4-.49.5-.11 1.02-.17 1.55-.17.53 0 1.05.06 1.55.17.5.11 1 .28 1.4.49.43.21.82.48 1.17.79-.7-.62-1.33-1.33-1.9-2.1-.57-.77-1.01-1.62-1.35-2.5-.34-.88-.59-1.83-.8-2.78-.07-.31-.12-.63-.17-.95-.05-.32-.08-.64-.08-.98s.03-.66.08-.98c.05-.32.1-.64.17-.95Z"/></svg>