<svg width="100" height="100" viewBox="0 0 100 100" fill="none" xmlns="http://www.w3.org/2000/svg">
  <path d="M62.8,22.2c-7.5,0-13.6,6.1-13.6,13.6c0,2.8,0.8,5.4,2.3,7.6c-3.1,1.8-5.1,5.1-5.1,8.8c0,5.5,4.5,10,10,10 c1.9,0,3.7-0.5,5.3-1.5c3.2,5.2,8.9,8.7,15.5,8.7c7.5,0,13.6-6.1,13.6-13.6c0-2.8-0.8-5.4-2.3-7.6c3.1-1.8,5.1-5.1,5.1-8.8 C93.5,29.3,89,24.8,83.5,24.8c-1.9,0-3.7,0.5-5.3,1.5C75,25.1,69.3,22.2,62.8,22.2z M37.2,35.8c7.5,0,13.6-6.1,13.6-13.6 c0-2.8-0.8-5.4-2.3-7.6c3.1-1.8,5.1-5.1,5.1-8.8c0-5.5-4.5-10-10-10c-1.9,0-3.7,0.5-5.3,1.5C35,5.1,29.3,8,22.8,8 C15.3,8,9.2,14.1,9.2,21.6c0,2.8,0.8,5.4,2.3,7.6c-3.1,1.8-5.1,5.1-5.1,8.8c0,5.5,4.5,10,10,10c1.9,0,3.7-0.5,5.3-1.5 C25,52.9,30.7,55.8,37.2,35.8z" fill="#C5D9E8"/>
</svg>
