<svg width="200" height="200" viewBox="0 0 200 200" fill="none" xmlns="http://www.w3.org/2000/svg">
<path d="M128.411 55.4434C132.833 52.5516 138.608 53.6494 141.733 57.8595C144.858 62.0696 143.983 67.897 139.562 70.7888L130.408 76.8183C128.53 73.1895 125.122 70.4764 121.222 69.3323L128.411 55.4434Z" stroke="#BFD8EB" stroke-width="14" stroke-linecap="round" stroke-linejoin="round"/>
<path d="M70.7888 139.562C67.897 143.983 62.0696 144.858 57.8595 141.733C53.6494 138.608 52.5516 132.833 55.4434 128.411L69.3323 121.222C70.4764 125.122 73.1895 128.53 76.8183 130.408L70.7888 139.562Z" stroke="#BFD8EB" stroke-width="14" stroke-linecap="round" stroke-linejoin="round"/>
<path d="M55.4434 70.7888C52.5516 66.3672 53.6494 60.5923 57.8595 57.467C62.0696 54.3417 67.897 55.2166 70.7888 59.6382L76.8183 68.7925C73.1895 70.6705 70.4764 74.0789 69.3323 77.9785L55.4434 70.7888Z" stroke="#BFD8EB" stroke-width="14" stroke-linecap="round" stroke-linejoin="round"/>
<path d="M121.222 130.668C125.122 129.524 128.53 126.81 130.408 123.182L139.562 129.211C143.983 132.103 144.858 137.93 141.733 142.14C138.608 146.35 132.833 147.448 128.411 144.557L121.222 130.668Z" stroke="#BFD8EB" stroke-width="14" stroke-linecap="round" stroke-linejoin="round"/>
</svg>
