<svg width="24" height="24" viewBox="0 0 24 24" fill="none" xmlns="http://www.w3.org/2000/svg">
<path d="M19.4286 12.25C19.8986 12.72 20.2786 13.28 20.5386 13.9C20.8986 14.73 20.8986 15.65 20.5386 16.48C20.2786 17.1 19.8986 17.66 19.4286 18.13C18.4886 19.07 17.1886 19.42 16.0286 19.08C15.4286 18.9 14.8886 18.59 14.3986 18.16C13.9386 17.76 13.5686 17.27 13.3186 16.71C12.9686 15.88 12.9686 14.96 13.3186 14.13C13.5686 13.57 13.9386 13.08 14.3986 12.68C14.8886 12.25 15.4286 11.94 16.0286 11.76C17.1886 11.42 18.4886 11.77 19.4286 12.25Z" stroke="#ADD8E6" stroke-width="2" stroke-linecap="round" stroke-linejoin="round"/>
<path d="M12.6802 14.3901C12.2502 14.8801 11.9402 15.4201 11.7602 16.0201C11.4202 17.1801 11.7702 18.4801 12.2502 19.4201C12.7202 19.8901 13.2802 20.2701 13.9002 20.5301C14.7302 20.8901 15.6502 20.8901 16.4802 20.5301C17.1002 20.2701 17.6602 19.8901 18.1302 19.4201C19.0702 18.4801 19.4202 17.1801 19.0802 16.0201C18.9002 15.4201 18.5902 14.8801 18.1602 14.3901" stroke="#ADD8E6" stroke-width="2" stroke-linecap="round" stroke-linejoin="round"/>
<path d="M11.76 7.97C11.94 7.37 12.25 6.83 12.68 6.34C13.08 5.88 13.57 5.51 14.13 5.26C14.96 4.91 15.88 4.91 16.71 5.26C17.27 5.51 17.76 5.88 18.16 6.34C18.59 6.83 18.9 7.37 19.08 7.97C19.42 9.13 19.07 10.43 18.13 11.37C17.66 11.84 17.1 12.22 16.48 12.48C15.65 12.84 14.73 12.84 13.9 12.48C13.28 12.22 12.72 11.84 12.25 11.37C11.78 10.9 11.42 10.34 11.42 9.67C11.42 8.99 11.55 8.47 11.76 7.97Z" stroke="#ADD8E6" stroke-width="2" stroke-linecap="round" strokelinejoin="round"/>
<path d="M4.58008 4.58008C5.52008 3.64008 6.82008 3.29008 7.98008 3.63008C8.58008 3.81008 9.12008 4.12008 9.61008 4.55008C10.0701 4.95008 10.4401 5.44008 10.6901 6.00008C11.0401 6.83008 11.0401 7.75008 10.6901 8.58008C10.4401 9.14008 10.0701 9.63008 9.61008 10.0301C9.12008 10.4601 8.58008 10.7701 7.98008 10.9501C6.82008 11.2901 5.52008 10.9401 4.58008 10.0001C3.64008 9.06008 3.29008 7.76008 3.63008 6.60008C3.81008 6.00008 4.12008 5.46008 4.58008 4.58008Z" stroke="#ADD8E6" stroke-width="2" stroke-linecap="round" stroke-linejoin="round"/>
</svg>
