<svg width="256" height="256" viewBox="0 0 256 256" fill="none" xmlns="http://www.w3.org/2000/svg">
<rect width="256" height="256" fill="none"/>
<path fill-rule="evenodd" clip-rule="evenodd" d="M128 32C101.49 32 80 53.4903 80 80C80 93.2536 85.3414 105.342 94.0119 114.012C85.3414 122.682 80 134.77 80 148C80 174.51 101.49 196 128 196C141.254 196 153.342 190.659 162.012 181.988C170.682 190.659 182.77 196 196 196C222.51 196 244 174.51 244 148C244 121.49 222.51 100 196 100C182.746 100 170.658 105.341 161.988 114.012C153.318 105.341 141.23 100 128 100C101.49 100 80 121.49 80 148H32V80C32 53.4903 53.4903 32 80 32H128Z" fill="#99CCEE"/>
</svg>
