<svg xmlns="http://www.w3.org/2000/svg" width="24" height="24" viewBox="0 0 24 24" fill="none" stroke="currentColor" stroke-width="2" stroke-linecap="round" stroke-linejoin="round" class="lucide lucide-puzzle"><path d="M19.43 12.03a8.5 8.5 0 1 1-8.46-8.46"/><path d="M22 12a2 2 0 1 0-4 0 2 2 0 0 0 4 0Z"/><path d_v="M12 2a2 2 0 1 0 0-4 2 2 0 0 0 0 4Z"/><path d="m21.97 12.03-1.43.2a1.5 1.5 0 0 1-1.3-2.5l.3-1.4a1.5 1.5 0 0 1 2.5-1.3l1.4.3a1.5 1.5 0 0 1 1.3 2.5l-.3 1.4a1.5 1.5 0 0 1-2.5 1.3Z"/><path d="m12.03 2.03-.2 1.4a1.5 1.5 0 0 1-2.5 1.3l-1.4-.3a1.5 1.5 0 0 1-1.3-2.5l.3-1.4a1.5 1.5 0 0 1 2.5-1.3l1.4.3a1.5 1.5 0 0 1 1.3 2.5Z"/></svg>
