<svg xmlns="http://www.w3.org/2000/svg" width="24" height="24" viewBox="0 0 24 24" fill="none" stroke="hsl(200 52% 79%)" stroke-width="2" stroke-linecap="round" stroke-linejoin="round"><path d="M19.43 12.03c-1.39-1.39-2.5-3.04-2.86-5.03.02-1.09.48-2.09 1.18-2.82.95-.95 2.22-1.46 3.55-1.18.8.17 1.5.55 1.95 1.15.5.6.85 1.4.95 2.35.21 1.33-.29 2.62-1.24 3.57a3.83 3.83 0 0 1-2.92 1.2Z"/><path d="M12.03 19.43c-1.39-1.39-3.04-2.5-5.03-2.86.02-1.09.48-2.09 1.18-2.82.95-.95 2.22-1.46 3.55-1.18.8.17 1.5.55 1.95 1.15.5.6.85 1.4.95 2.35.21 1.33-.29 2.62-1.24 3.57a3.83 3.83 0 0 1-2.92 1.2Z"/><path d="M4.57 12.03c-1.39 1.39-2.5 3.04-2.86 5.03.02 1.09.48 2.09 1.18 2.82.95.95 2.22 1.46 3.55 1.18.8.17 1.5.55 1.95 1.15.5.6.85 1.4.95 2.35.21 1.33-.29 2.62-1.24 3.57a3.83 3.83 0 0 1-2.92 1.2Z"/><path d="M12.03 4.57c1.39 1.39 3.04 2.5 5.03 2.86V8.5c0-1.09-.48-2.09-1.18-2.82-.95-.95-2.22-1.46-3.55-1.18-.8.17-1.5.55-1.95 1.15-.5.6-.85 1.4-.95 2.35-.21 1.33.29 2.62 1.24 3.57a3.83 3.83 0 0 1 2.92-1.2Z"/></svg>