<svg width="100" height="100" viewBox="0 0 100 100" fill="none" xmlns="http://www.w3.org/2000/svg">
  <defs>
    <linearGradient id="grad" x1="0%" y1="0%" x2="100%" y2="100%">
      <stop offset="0%" stop-color="#4A90E2" />
      <stop offset="100%" stop-color="#9013FE" />
    </linearGradient>
  </defs>
  <path
    fill-rule="evenodd"
    clip-rule="evenodd"
    d="M49 15C49 11.6863 46.3137 9 43 9C39.6863 9 37 11.6863 37 15C37 18.3137 39.6863 21 43 21C46.3137 21 49 18.3137 49 15ZM59.5 21C62.8137 21 65.5 18.3137 65.5 15C65.5 11.6863 62.8137 9 59.5 9C56.1863 9 53.5 11.6863 53.5 15C53.5 18.3137 56.1863 21 59.5 21Z"
    fill="url(#grad)"
  />
  <path
    d="M78 40.5C78 36.3579 74.6421 33 70.5 33C66.3579 33 63 36.3579 63 40.5C63 44.6421 66.3579 48 70.5 48C74.6421 48 78 44.6421 78 40.5Z"
    fill="url(#grad)"
  />
  <path
    fill-rule="evenodd"
    clip-rule="evenodd"
    d="M21 59.5C21 56.1863 23.6863 53.5 27 53.5C30.3137 53.5 33 56.1863 33 59.5C33 62.8137 30.3137 65.5 27 65.5C23.6863 65.5 21 62.8137 21 59.5Z"
    fill="url(#grad)"
  />
  <path
    d="M23,48H33V23C33,15.82,27.18,10,20,10H10V20C10,27.18,15.82,33,23,33V48Z"
    fill="url(#grad)"
  />
  <path d="M48,23H23V33H48V23Z" fill="url(#grad)" />
  <path
    d="M48,78V68H73C80.18,68,86,62.18,86,55V45H76C68.82,45,63,50.82,63,58V78H48Z"
    fill="url(#grad)"
  />
  <path d="M78,48H68V23H78V48Z" fill="url(#grad)" />
  <path
    d="M58,63V78H48V63C48,55.82,53.82,50,61,50H78V40H61C50.5,40,43,47.5,43,58V63Z"
    fill="url(#grad)"
    transform="rotate(180 60.5 60.5)"
  />
</svg>
